<?xml version="1.0" encoding="utf-8"?>
<!-- Generator: Adobe Illustrator 21.1.0, SVG Export Plug-In . SVG Version: 6.00 Build 0)  -->
<svg version="1.1" id="Layer_1" xmlns="http://www.w3.org/2000/svg" xmlns:xlink="http://www.w3.org/1999/xlink" x="0px" y="0px"
	 viewBox="0 0 1366 768" style="enable-background:new 0 0 1366 768;" xml:space="preserve">
<style type="text/css">
	.st0{fill:url(#SVGID_1_);}
	.st1{fill:#F2C247;}
	.st2{fill:#064890;}
	.st3{fill:#009445;}
	.st4{fill:#8BBE3A;}
	.st5{fill:#009CD1;}
	.st6{fill:#C27CB2;}
	.st7{fill:url(#SVGID_2_);}
	.st8{fill:url(#SVGID_3_);}
	.st9{fill:#941B80;}
	.st10{fill:url(#SVGID_4_);}
	.st11{fill:url(#SVGID_5_);}
	.st12{fill:url(#SVGID_6_);}
	.st13{fill:url(#SVGID_7_);}
	.st14{fill:url(#SVGID_8_);}
</style>
<g>
	
		<linearGradient id="SVGID_1_" gradientUnits="userSpaceOnUse" x1="538.85" y1="541.7074" x2="618.15" y2="541.7074" gradientTransform="matrix(1 0 0 -1 0 768)">
		<stop  offset="0" style="stop-color:#F08700"/>
		<stop  offset="1" style="stop-color:#EF8300"/>
	</linearGradient>
	<path class="st0" d="M538.8,219.7c1.9,8.8,8.8,20.6,17.3,23.9c8.5,3.3,33.5,1.9,54.9-5.5c2.2-12.4,2.2-19.3,7.1-30.9
		c-8,7.4-20.5,12.4-37.2,12.4C564.3,219.6,538.8,219.7,538.8,219.7z"/>
	<path class="st1" d="M627.3,200.3c-13,8-16.6,14.7-17.7,28.8c-1.6,21.4,4.4,37.9,13.5,59.8c9.6,23.2,16.2,37.9,18.7,67.3
		c2.1,24.4-1.4,37.9-1.4,37.9c-5.5,2.2-11,8-11.5,13.2c6,0,39.5,0,39.5,0c4.7-14.5,4.7-28.3,2.7-40.9c-2.2-14.5-4.4-31-5.5-57.1
		c5.5,17.3,13.7,28.6,20,47.8c7.1,21.4,9.1,38.5,6.9,50.1l34,0.4c1.6-35.7-7.4-62.6-15.6-85.4c-8.7-23.9-26.5-47.3-30.1-78.7
		c-5.5-47.5-13.7-52.8-27.7-52.8C645.2,190.6,637.8,193.8,627.3,200.3z"/>
	<g>
		<rect x="220" y="407.2" class="st2" width="927.2" height="7.1"/>
	</g>
	<g>
		<rect x="220" y="358.9" class="st3" width="927.2" height="7.1"/>
	</g>
	<g>
		<rect x="220" y="310.6" class="st4" width="927.2" height="7.1"/>
	</g>
	<g>
		<rect x="220" y="214" class="st2" width="927.2" height="7.1"/>
	</g>
	<g>
		<rect x="220" y="262.3" class="st5" width="927.2" height="7.1"/>
	</g>
	<ellipse class="st2" cx="329" cy="410.8" rx="32.7" ry="26.9"/>
	<ellipse class="st2" cx="473.5" cy="264" rx="32.7" ry="26.9"/>
	<ellipse class="st2" cx="618" cy="167.6" rx="32.7" ry="26.9"/>
	<g>
		<g>
			<g>
				<path class="st2" d="M571.8,504.4l-5.1,13.5h-10.4l23.4-58.3h12.4l0.6,58.3h-10.4l0.2-13.5L571.8,504.4L571.8,504.4z M583,496.5
					l0.3-12.9c0.1-3.5,0.4-9.7,0.5-14.1h-0.2c-1.4,4.4-3.3,10.8-4.5,14l-4.6,13H583z"/>
				<path class="st2" d="M599,508.7c1.6,1,3.8,1.8,6.8,1.7c3.1-0.1,4.8-2.1,4.8-4.8c0-2.3-1.1-4-4-6.3c-3.7-2.9-5.3-6.7-5.3-10.3
					c0-7.8,6-14.2,15.5-14.2c3.6,0,6.3,0.7,7.9,1.6l-2.5,7.9c-1.2-0.7-3.3-1.3-5-1.3c-3.4,0-5.6,1.8-5.6,4.7c0,2.2,1.2,3.5,3.2,5.1
					c4.7,3.6,6.3,7.8,6.3,11.1c0,9.3-6.4,14.5-16,14.5c-3.9,0-7.3-1.1-8.7-2.2L599,508.7z"/>
				<path class="st2" d="M658.5,489.7c0,13.3-7,28.9-19.7,28.9c-10.5,0-12.8-8.4-12.8-14.6c0-14.4,7.8-29.2,20.5-29.2
					C657,474.8,658.5,483.7,658.5,489.7z M636.5,503.5c0,3.1,0.2,6.9,3.4,6.9c5.2,0,8-14.4,8-22.1c0-2.9-0.7-5.3-3.3-5.3
					C640,483.1,636.5,496.2,636.5,503.5z"/>
				<path class="st2" d="M682.3,517.3c-1.3,0.4-4,1.1-7.5,1.1c-9.2,0-13.1-7.4-13.1-15.1c0-15.2,9.4-28.3,22.5-28.3
					c2.6,0,4.3,0.3,5.3,0.8l-2.7,8.8c-1.1-0.3-2.1-0.4-3.1-0.4c-6.3,0-11.3,8.5-11.3,17.6c0,4.8,1.9,7.9,5.4,7.9c2,0,3.8-0.6,5.1-1
					L682.3,517.3z"/>
				<path class="st2" d="M687.3,517.9l8-42.3H706l-8,42.3H687.3z M697.3,464.8c0.1-3.1,2.2-6.7,6-6.7c3.5,0,5.1,2.7,5.1,5.6
					c-0.1,4.3-3,6.7-6.2,6.7C698.8,470.5,697.3,468,697.3,464.8z"/>
				<path class="st2" d="M727.2,517.9c0.1-2.2,0.2-4.6,0.3-7.1h-0.3c-3.3,5.6-7.4,7.8-10.6,7.8c-6.1,0-9.1-5.3-9.1-12.6
					c0-12.9,6.3-31.1,24.2-31.1c4.2,0,8.4,0.8,11,1.7l-4.7,23.6c-0.9,4.8-1.7,13.1-1.7,17.7H727.2z M731,483.2
					c-0.9-0.2-1.6-0.3-2.2-0.3c-7,0-10.8,14.2-10.9,20.3c0,3.7,0.5,6.4,3.2,6.4c2.9,0,5.7-4.8,7.2-12.5L731,483.2z"/>
				<path class="st2" d="M764.8,517.3c-1.3,0.4-4,1.1-7.5,1.1c-9.2,0-13.1-7.4-13.1-15.1c0-15.2,9.4-28.3,22.5-28.3
					c2.6,0,4.3,0.3,5.3,0.8l-2.7,8.8c-1.1-0.3-2.1-0.4-3.1-0.4c-6.3,0-11.3,8.5-11.3,17.6c0,4.8,1.9,7.9,5.4,7.9c2,0,3.8-0.6,5.1-1
					L764.8,517.3z"/>
				<path class="st2" d="M770,517.9l8-42.3h10.7l-8,42.3H770z M780,464.8c0.1-3.1,2.2-6.7,6-6.7c3.5,0,5.1,2.7,5.1,5.6
					c-0.1,4.3-3,6.7-6.3,6.7C781.5,470.5,780,468,780,464.8z"/>
				<path class="st2" d="M790.3,504c0-14.4,7.8-29.2,20.5-29.2c10.5,0,12.1,8.9,12.1,14.9c0,13.3-7,28.9-19.7,28.9
					C792.8,518.6,790.3,510.2,790.3,504z M812.5,488.3c0-2.9-0.7-5.3-3.3-5.3c-4.6,0-8.2,13.1-8.1,20.4c0,3.1,0.2,6.9,3.4,6.9
					C809.5,510.4,812.5,495.9,812.5,488.3z M824.3,458.6l-10.4,12.1h-7.4l7.7-12.1H824.3z"/>
				<path class="st2" d="M824.3,517.9l5.3-28.6c0.9-4.9,1.6-9.7,2.2-13.8h9.2l-0.4,5.5h0.2c2.9-3.9,6.8-6.1,11.3-6.1
					c6,0,8.1,4.2,8.1,9.3c0,2.5-0.4,5.1-0.9,8l-4.8,25.7h-10.7l4.9-26.3c0.3-1.5,0.5-2.8,0.5-4.5c0-2-0.8-3.4-2.6-3.4
					c-2.5,0-5.9,3.7-7.4,11.8l-4.1,22.4H824.3z"/>
				<path class="st2" d="M911.3,517.9l3.1-22.8c0.7-4.8,1.8-11.1,3.2-18.7h-0.4c-2.4,7.6-5.1,14.4-6.8,18.3l-9.4,22.2h-7.7
					l-0.9-22.5c-0.2-4-0.4-10.5-0.3-18.1h-0.2c-1.5,7.6-2.8,13.9-3.9,18.7l-5.3,22.8h-9.2l14.6-58.3h11.3l1.1,27.7
					c0.1,4.3,0.3,10.4,0.1,14.5h0.3c1.1-4.2,3.3-10.1,5.1-14.5l11-27.7h11.3l-7.5,58.3L911.3,517.9L911.3,517.9z"/>
				<path class="st2" d="M955.8,516.1c-3.7,1.6-7.3,2.3-12,2.3c-10.4,0-14.3-6.8-14.3-15.9c0-12.3,6.8-27.7,20.1-27.7
					c7.6,0,11,5.8,11,11.6c0,11.6-9.2,15.9-20.8,15.6c0,1.2,0.1,3.4,1,4.9c0.9,1.7,2.9,3,5.7,3c3.5,0,5.9-0.9,8.5-2.1L955.8,516.1z
					 M948.3,483.6c-3.3,0-6.2,4.2-7.4,10.3c5.6,0.3,10.4-2,10.4-6.5C951.3,485,950.3,483.6,948.3,483.6z"/>
				<path class="st2" d="M975.8,475.6l1.3,7.7c0.4,3.4,0.5,5.5,0.7,7.1h0.3c0.8-1.8,1.8-4.2,3-6.5l4.1-8.3h11l-13.7,21.2l5.6,21.1
					h-11l-1.4-7.4c-0.5-3-0.7-4.5-0.9-7.5h-0.2c-0.8,1.7-1.5,3.5-3,6.8l-4.1,8.1h-11l13.8-21.5l-5.5-20.9L975.8,475.6L975.8,475.6z"
					/>
				<path class="st2" d="M991.3,517.9l8-42.3h10.7l-8,42.3H991.3z M1001.3,464.8c0.1-3.1,2.2-6.7,6-6.7c3.5,0,5.1,2.7,5.1,5.6
					c-0.1,4.3-3,6.7-6.2,6.7C1002.8,470.5,1001.3,468,1001.3,464.8z"/>
				<path class="st2" d="M1032.3,517.3c-1.3,0.4-4,1.1-7.5,1.1c-9.2,0-13.1-7.4-13.1-15.1c0-15.2,9.4-28.3,22.5-28.3
					c2.6,0,4.3,0.3,5.3,0.8l-2.7,8.8c-1.1-0.3-2.1-0.4-3.1-0.4c-6.3,0-11.3,8.5-11.3,17.6c0,4.8,1.9,7.9,5.4,7.9c2,0,3.8-0.6,5.1-1
					L1032.3,517.3z"/>
				<path class="st2" d="M1057.2,517.9c0.1-2.2,0.2-4.6,0.3-7.1h-0.3c-3.3,5.6-7.4,7.8-10.6,7.8c-6.1,0-9.1-5.3-9.1-12.6
					c0-12.9,6.3-31.1,24.2-31.1c4.2,0,8.4,0.8,11,1.7l-4.7,23.6c-0.9,4.8-1.7,13.1-1.7,17.7H1057.2z M1060.9,483.2
					c-0.9-0.2-1.6-0.3-2.2-0.3c-7,0-10.8,14.2-10.9,20.3c0,3.7,0.5,6.4,3.2,6.4c2.9,0,5.7-4.8,7.2-12.5L1060.9,483.2z"/>
				<path class="st2" d="M1072.6,517.9l5.3-28.6c0.9-4.9,1.6-9.7,2.2-13.8h9.2l-0.4,5.5h0.2c2.9-3.9,6.8-6.1,11.3-6.1
					c6,0,8.1,4.2,8.1,9.3c0,2.5-0.4,5.1-0.9,8l-4.8,25.7H1092l4.9-26.3c0.3-1.5,0.5-2.8,0.5-4.5c0-2-0.8-3.4-2.6-3.4
					c-2.5,0-5.9,3.7-7.4,11.8l-4.1,22.4H1072.6z"/>
				<path class="st2" d="M1131.6,517.9c0.1-2.2,0.2-4.6,0.3-7.1h-0.3c-3.3,5.6-7.4,7.8-10.6,7.8c-6.1,0-9.1-5.3-9.1-12.6
					c0-12.9,6.3-31.1,24.2-31.1c4.2,0,8.4,0.8,11,1.7l-4.7,23.6c-0.9,4.8-1.7,13.1-1.7,17.7H1131.6z M1135.3,483.2
					c-0.9-0.2-1.6-0.3-2.2-0.3c-7,0-10.8,14.2-10.9,20.3c0,3.7,0.5,6.4,3.2,6.4c2.9,0,5.7-4.8,7.2-12.5L1135.3,483.2z"/>
			</g>
		</g>
		<g>
			<g>
				<path class="st2" d="M486.8,566.4l-8.6,45.9c-0.9,4.5-1.6,9.6-2.1,13.9h-8.7l0.5-6.2h-0.2c-2.5,4.3-6.4,6.9-10.1,6.9
					c-6,0-9.4-5.3-9.4-13.2c0-14.9,7.9-30.6,20.8-30.6c1.5,0,2.8,0.4,3.8,1l3.3-17.8L486.8,566.4L486.8,566.4z M471.5,592.5
					c-0.6-0.6-1.5-1-2.7-1c-6.2,0-9.9,13.4-9.9,20.4c0,3.9,0.9,6.2,3.5,6.2c2.5,0,4.7-3.3,5.9-7.8L471.5,592.5z"/>
				<path class="st2" d="M511.5,624.5c-3.7,1.6-7.3,2.3-12,2.3c-10.4,0-14.3-6.8-14.3-15.9c0-12.3,6.8-27.7,20.1-27.7
					c7.6,0,11,5.8,11,11.6c0,11.6-9.2,15.9-20.8,15.6c0,1.2,0.1,3.4,1,4.9c0.9,1.7,2.9,3,5.7,3c3.5,0,5.9-0.9,8.5-2.1L511.5,624.5z
					 M504,592c-3.3,0-6.2,4.2-7.4,10.3c5.6,0.3,10.4-2,10.4-6.5C507,593.3,506,592,504,592z"/>
				<path class="st2" d="M516.3,626.3l11.3-59.9h10.7L527,626.3H516.3z"/>
			</g>
		</g>
		<g>
			<path class="st2" d="M609.3,626.3l4.3-32.1c1-6.7,2.5-15.6,4.5-26.3h-0.6c-3.4,10.7-7.1,20.2-9.5,25.8L594.8,625H584l-1.3-31.6
				c-0.2-5.6-0.6-14.7-0.4-25.4H582c-2,10.7-4,19.6-5.5,26.3l-7.5,32.1h-13l20.6-81.9h15.9l1.6,38.9c0.1,6.1,0.4,14.6,0.1,20.4h0.4
				c1.6-5.8,4.7-14.2,7.1-20.4l15.5-38.9h15.9l-10.8,81.9H609.3z"/>
			<path class="st2" d="M671.8,623.8c-5.2,2.2-10.2,3.3-16.8,3.3c-14.6,0-20.1-9.6-20.1-22.4c0-17.3,9.5-38.9,28.3-38.9
				c10.7,0,15.4,8.1,15.5,16.3c0,16.3-12.9,22.4-29.2,21.9c0,1.7,0.1,4.7,1.4,6.9c1.3,2.4,4.1,4.3,8.1,4.3c4.9,0,8.3-1.2,11.9-2.9
				L671.8,623.8z M661.2,578c-4.6,0-8.7,5.8-10.3,14.5c7.9,0.4,14.6-2.8,14.6-9.1C665.5,580,664,578,661.2,578z M683.5,542.9
				l-14.7,17h-10.3l10.8-17H683.5z"/>
			<path class="st2" d="M709,551.3l-3,15.4H717l-2,10.8H704l-5.2,27.4c-0.4,2.1-0.5,3.9-0.5,5.1c0,3.6,1.8,5,4.6,5
				c1.1,0,2.6,0,4.1-0.2l-1.8,11.3c-2.8,0.8-6.1,1-9,1c-9,0-13.5-5.1-13.5-13c0-2.7,0.5-6,1.1-9l5.2-27.5H682l1.9-10.8h7l2-10.5
				L709,551.3z"/>
			<path class="st2" d="M759.8,586.6c0,18.7-9.9,40.6-27.7,40.6c-14.8,0-18-11.8-18-20.5c0-20.2,10.9-41,28.7-41
				C757.5,565.8,759.8,578.3,759.8,586.6z M728.8,606c0,4.4,0.2,9.7,4.8,9.7c7.3,0,11.3-20.3,11.3-31c0-4-1-7.4-4.7-7.4
				C733.8,577.3,728.7,595.8,728.8,606z"/>
			<path class="st2" d="M818,542.3l-12.1,64.5c-1.2,6.3-2.3,13.5-2.9,19.6h-12.3l0.7-8.8h-0.2c-3.5,6.1-9,9.7-14.2,9.7
				c-8.4,0-13.2-7.4-13.2-18.5c0-20.9,11.1-43,29.2-43c2.2,0,4,0.6,5.3,1.5l4.7-25H818z M796.3,578.8c-0.8-0.8-2.2-1.5-3.7-1.5
				c-8.7,0-14,18.8-14,28.7c0,5.5,1.3,8.8,4.9,8.8c3.5,0,6.6-4.6,8.3-10.9L796.3,578.8z"/>
			<path class="st2" d="M861.3,586.6c0,18.7-9.9,40.6-27.7,40.6c-14.8,0-18-11.8-18-20.5c0-20.2,10.9-41,28.8-41
				C859.3,565.8,861.3,578.3,861.3,586.6z M830.5,606c0,4.4,0.2,9.7,4.8,9.7c7.3,0,11.3-20.3,11.3-31c0-4-1-7.4-4.7-7.4
				C835.5,577.3,830.3,595.8,830.5,606z"/>
			<path class="st2" d="M883.9,610.8c2.6,1.6,6.9,2.8,11.2,2.8c6.9,0.2,11.7-4,11.7-10.5c0-5.5-2.9-8.6-8.2-13.7
				c-6.3-6.1-9.6-12.6-9.6-19.8c0-15.2,10.7-25.9,26.5-25.9c6.3,0,10.2,1.3,12.1,2.5l-4.1,13.1c-2.4-1.3-5.1-2.2-8.7-2.2
				c-6.4,0-10.8,4.1-10.8,10.5c0,3.9,1.6,6.9,8.2,12.8c6.6,6,9.7,13.1,9.7,19.7c0,17-11.2,27-26.6,27c-8.2,0-13.4-1.8-15.2-3
				L883.9,610.8z"/>
			<path class="st2" d="M978.8,566.8l-7.6,40.1c-1.3,6.9-2.2,13.6-3,19.3h-12.9l0.5-7.9l-0.2-0.2c-4.3,6.3-9.7,9.1-15.3,9.1
				c-7.8,0-11.2-6-11.2-13.7c0-3.8,0.6-7.8,1.4-12.3l6.4-34.4h15l-6.4,33.8c-0.6,3.6-1.1,6.7-1.1,9.6c0,2.8,1.1,4.6,3.6,4.6
				c3.8,0,7.7-5.1,9.3-13.5l6.4-34.5L978.8,566.8L978.8,566.8z"/>
			<path class="st2" d="M976.4,616.1l17.3-25.2c4.1-5.8,5.1-7.2,8.7-11.3l0.1-0.2h-17.3l2.4-12.5h33l-1.8,11.2l-16.7,23.9
				c-5.1,7.2-6.7,9-8.9,11.5v0.2h19.4l-2.4,12.5h-35.2L976.4,616.1z"/>
			<path class="st2" d="M1070.1,566.8l-7.6,40.1c-1.3,6.9-2.2,13.6-3,19.3h-12.9l0.5-7.9l-0.2-0.2c-4.3,6.3-9.7,9.1-15.3,9.1
				c-7.8,0-11.2-6-11.2-13.7c0-3.8,0.6-7.8,1.4-12.3l6.4-34.4h15l-6.4,33.8c-0.6,3.6-1.1,6.7-1.1,9.6c0,2.8,1.1,4.6,3.6,4.6
				c3.8,0,7.7-5.1,9.3-13.5l6.4-34.5L1070.1,566.8L1070.1,566.8z"/>
			<path class="st2" d="M1070.3,626.3l15.9-84.1h14.6l-9.1,49.2h0.2c1.4-2.4,2.9-4.9,4.1-7.1l10.8-17.5h16.1l-18.9,26.3l8.9,33.2
				h-15.4l-5.2-25.6l-3.5,5.2l-3.8,20.4L1070.3,626.3L1070.3,626.3z"/>
			<path class="st2" d="M1117.6,626.3l11.3-59.4h15l-11.3,59.4H1117.6z M1131.7,551.6c0.1-4.4,3.1-9.4,8.4-9.4
				c4.9,0,7.1,3.8,7.1,7.9c-0.1,6.1-4.2,9.5-8.8,9.5C1133.7,559.8,1131.7,556.1,1131.7,551.6z"/>
		</g>
	</g>
	<path class="st3" d="M393.7,259.1c-7.5,3.6-5.3,29.6,31.6,60.6c3.6-5.9,10.3-18.4,31.2-22.9c-16.4,0.6-28.9-6.6-36.9-14
		C406.7,270.9,402.8,254.7,393.7,259.1z"/>
	<path class="st6" d="M303.9,438.6c-20.5,0-38.1,5.1-58.5,24.7c-20,19.2-24.5,32.3-24.5,49.3c0,10.7,6.5,24.6,18,30.7
		c13.5,7.3,20.9,15.8,20.9,26.9s-18.5,11.8-31.1,24.3c-9.1,9-9.9,18.3-9.9,25.9h42.6c0,0,0.6-4.1-3.5-8.2c-1.2-1.2-0.7-3.1,0.9-3.7
		c9.1-3.1,21-10.2,27-21c6.2-11.1,2.9-26.1-3.6-36c17.4,8.7,22,36.6-2.9,68.9c-1.6,2.1-0.1,5.2,2.5,5.2h53.8c0,0,0.8-5.3-4.5-8.7
		c-2.4-1.6-3.8-4.7-2.9-7.4c7.4-23.4,8-37.8-0.3-56.1c-8.1-17.8-38.4-26.2-38.4-42.4c0-19.9,42.9-23.5,50.3-32.1
		C347.3,470.4,335.9,438.6,303.9,438.6z"/>
	<path class="st4" d="M461,294.5c-16.8,0-35.2,7.3-47.6,42.5c-8.2,23.3,1.4,47.6,1.4,62.5c0,18.4-10.3,23.3-10.6,28.2
		c5.1,7,20.6,28.4,20.6,28.4c3.4-2.7,5.9-9.4,4.3-13.7c-1.6-4.4-0.1-7.1,3.3-8.5c7.6-3,15.2-8.7,18.4-19.8
		c2.3-7.9,2.7-17.9-3.5-28.2c13.9,14.1,23.2,4.7,36.9,8.1c13.4,3.3,14.9,13.2,19.3,23.7c1.4,3.3,5.3,4.6,8.3,2.8
		c10.6-6.3,21-14.5,21-14.5c-2.2-6.8-6.9-7.1-14.1-6.2c-1.4-12.4-5.9-25-12.7-29.3c-9.5-6-24.5-2-30.6-13.5c-4-7.5-3.4-28.6,5-39.5
		c5.2-6.8,12.8-9,11.9-12.7C490.5,297.9,471.3,294.5,461,294.5z"/>
	
		<linearGradient id="SVGID_2_" gradientUnits="userSpaceOnUse" x1="522.95" y1="554.8187" x2="556.7145" y2="554.8187" gradientTransform="matrix(1 0 0 -1 0 768)">
		<stop  offset="0" style="stop-color:#F08700"/>
		<stop  offset="1" style="stop-color:#EF8300"/>
	</linearGradient>
	<path class="st7" d="M539.2,203.8c-11.5,0-16.2,9.1-16.2,14s12.4,8.8,20.3-3.8c7.4,0,13.5,0,13.5,0
		C552.8,208.2,545.8,203.8,539.2,203.8z"/>
	<path class="st1" d="M726.7,407.2c-4.8,7.1-23.6,14.8-29.9,14.8c-7.6,0-5.3-8.8-4.1-15L726.7,407.2z"/>
	
		<linearGradient id="SVGID_3_" gradientUnits="userSpaceOnUse" x1="579.463" y1="521.9749" x2="665.3039" y2="521.9749" gradientTransform="matrix(1 0 0 -1 0 768)">
		<stop  offset="0" style="stop-color:#F08700"/>
		<stop  offset="1" style="stop-color:#EF8300"/>
	</linearGradient>
	<path class="st8" d="M657.5,191.5c-10.5-4.3-23.2,5.4-23.5,20.9s-2.6,32.9-5.8,41c-3.2,8.1-11.6,19.4-29.7,20.6
		c-11,0.8-16.5,2.6-18.7,7.4c-2.3,4.8,9.7,21.3,19,20c9.4-1.3,43.8-15.1,53.2-31.6C666.5,244.3,670.3,196.7,657.5,191.5z"/>
	<path class="st9" d="M353.5,464.1c-18.1-12.8-25.8-21.3-35-21.3c-10,0-15.9,5.4-15.9,12.5c0,6.5,9.5,16.1,28.7,25.3
		c17.9,8.6,24.8,16,36.1,16s24-19.2,37-21.7c14.9-2.9,19.5-7,22.2-14.3c0.7-1.9-0.8-3.9-2.8-3.8c-9.6,0-17.7,0.2-25.1,0.2
		c-7.8,0-9.4,2-18.1,8.1C374.2,469.6,363.3,471,353.5,464.1z"/>
	<path class="st3" d="M468.5,300.5c-8.3,8.8,20,32.9,43.4,30.3s32.8-23.8,26.8-30.5s-13.2,8.6-24.8,9.8
		C502.5,311.4,479.5,288.9,468.5,300.5z"/>
</g>
<g>
	<rect x="220" y="-134" class="st5" width="75" height="75"/>
	<rect x="313" y="-134" class="st2" width="75" height="75"/>
	<rect x="406" y="-134" class="st4" width="75" height="75"/>
	<rect x="499" y="-134" class="st3" width="75" height="75"/>
	<rect x="592" y="-134" class="st6" width="75" height="75"/>
	<rect x="685" y="-134" class="st9" width="75" height="75"/>
	
		<linearGradient id="SVGID_4_" gradientUnits="userSpaceOnUse" x1="778" y1="864.5" x2="853" y2="864.5" gradientTransform="matrix(1 0 0 -1 0 768)">
		<stop  offset="0" style="stop-color:#F08700"/>
		<stop  offset="1" style="stop-color:#EF8300"/>
	</linearGradient>
	<rect x="778" y="-134" class="st10" width="75" height="75"/>
	<rect x="871" y="-134" class="st1" width="75" height="75"/>
	
		<linearGradient id="SVGID_5_" gradientUnits="userSpaceOnUse" x1="220" y1="1012" x2="388" y2="1012" gradientTransform="matrix(1 0 0 -1 0 768)">
		<stop  offset="0" style="stop-color:#07346C"/>
		<stop  offset="0.2442" style="stop-color:#084587"/>
		<stop  offset="1" style="stop-color:#0078B7"/>
	</linearGradient>
	<rect x="220" y="-328" class="st11" width="168" height="168"/>
	
		<linearGradient id="SVGID_6_" gradientUnits="userSpaceOnUse" x1="406" y1="1012" x2="574" y2="1012" gradientTransform="matrix(1 0 0 -1 0 768)">
		<stop  offset="0" style="stop-color:#8BBE3A"/>
		<stop  offset="1" style="stop-color:#577E19"/>
	</linearGradient>
	<rect x="406" y="-328" class="st12" width="168" height="168"/>
	
		<linearGradient id="SVGID_7_" gradientUnits="userSpaceOnUse" x1="592" y1="1012" x2="760" y2="1012" gradientTransform="matrix(1 0 0 -1 0 768)">
		<stop  offset="0" style="stop-color:#680E58"/>
		<stop  offset="0.1826" style="stop-color:#941B80"/>
		<stop  offset="1" style="stop-color:#D44889"/>
	</linearGradient>
	<rect x="592" y="-328" class="st13" width="168" height="168"/>
	
		<linearGradient id="SVGID_8_" gradientUnits="userSpaceOnUse" x1="778" y1="1012" x2="946" y2="1012" gradientTransform="matrix(1 0 0 -1 0 768)">
		<stop  offset="0" style="stop-color:#D1490B"/>
		<stop  offset="0.2357" style="stop-color:#F08700"/>
		<stop  offset="0.2691" style="stop-color:#F18B00"/>
		<stop  offset="0.5791" style="stop-color:#F9AE00"/>
		<stop  offset="0.8337" style="stop-color:#FDC300"/>
		<stop  offset="1" style="stop-color:#FFCB00"/>
	</linearGradient>
	<rect x="778" y="-328" class="st14" width="168" height="168"/>
</g>
</svg>
